<?xml version="1.0" standalone="no"?>
<!DOCTYPE svg PUBLIC "-//W3C//DTD SVG 20010904//EN"
 "http://www.w3.org/TR/2001/REC-SVG-20010904/DTD/svg10.dtd">
<svg version="1.0" xmlns="http://www.w3.org/2000/svg"
 width="720.000000pt" height="720.000000pt" viewBox="0 0 720.000000 720.000000"
 preserveAspectRatio="xMidYMid meet">
<metadata>
Created by potrace 1.11, written by Peter Selinger 2001-2013
</metadata>
<g transform="translate(0.000000,720.000000) scale(0.100000,-0.100000)"
fill="#000000" stroke="none">
<path d="M589 4058 c-133 -162 -282 -306 -419 -403 -59 -42 -70 -53 -70 -72 0
-7 44 -45 98 -85 119 -89 327 -294 411 -405 37 -50 69 -83 80 -83 10 0 43 33
79 79 122 158 328 353 470 446 25 16 42 35 42 46 0 21 -1 22 -120 111 -116 86
-264 232 -367 361 -50 62 -93 107 -103 107 -10 0 -53 -44 -101 -102z m144 -59
c77 -41 290 -249 362 -354 36 -51 36 -53 22 -87 -20 -47 -33 -63 -167 -199
-126 -127 -220 -201 -255 -201 -57 0 -318 232 -408 363 -34 50 -37 58 -27 84
35 92 365 404 428 405 13 0 33 -5 45 -11z"/>
<path d="M617 3942 c-68 -50 -282 -260 -312 -305 -40 -61 -25 -88 128 -246
112 -116 232 -210 263 -206 72 8 404 333 404 396 0 63 -315 380 -398 401 -16
5 -39 -6 -85 -40z m109 -145 l31 -82 -23 -3 c-24 -3 -24 -5 -22 -90 l3 -87
-28 -3 -28 -3 5 90 c5 86 4 91 -14 91 -11 0 -20 3 -20 7 0 16 55 171 59 167 3
-2 19 -41 37 -87z m-132 -146 c16 -17 15 -19 -12 -24 -33 -7 -62 -31 -62 -52
0 -8 15 -22 33 -32 47 -26 237 -25 290 1 55 27 47 77 -13 80 -23 1 -35 8 -41
22 -7 20 -5 20 42 11 27 -5 46 -13 43 -18 -3 -5 -1 -9 5 -9 6 0 18 -11 26 -24
22 -34 7 -60 -47 -80 -107 -40 -264 -38 -363 4 -77 33 -77 82 -1 120 51 25 78
25 100 1z m127 -201 c1 -19 2 -60 3 -90 l1 -55 -37 -1 -37 -1 4 66 c2 36 4 77
4 91 1 21 6 25 31 25 27 0 30 -3 31 -35z"/>
<path d="M1437 4003 c-2 -5 -4 -201 -3 -438 l1 -430 110 0 c61 -1 116 1 123 3
9 3 12 100 12 438 l0 434 -119 0 c-66 0 -122 -3 -124 -7z"/>
<path d="M1809 3998 c0 -7 -1 -199 -2 -427 -1 -285 1 -418 9 -425 7 -8 116
-11 335 -11 l324 0 3 86 3 86 -216 -1 -215 -1 0 92 0 93 198 2 197 3 2 83 1
82 -199 0 -199 0 0 89 0 90 213 -1 212 0 3 86 3 86 -336 0 c-261 0 -335 -3
-336 -12z"/>
<path d="M2619 3998 c-1 -17 -1 -818 0 -843 1 -20 8 -20 333 -20 l333 1 3 85
3 86 -198 1 c-109 0 -206 0 -215 1 -15 1 -17 12 -16 91 l1 90 197 0 197 0 -1
83 -1 82 -196 3 -196 2 0 90 0 89 191 0 c105 0 201 0 214 0 21 1 22 5 22 86
l0 85 -335 0 c-261 0 -335 -3 -336 -12z"/>
<path d="M3429 4008 c0 -2 -1 -198 -2 -436 -1 -282 1 -432 8 -433 6 -1 157 -2
338 -3 l327 -1 0 86 0 86 -202 0 c-112 1 -209 2 -215 2 -10 1 -13 26 -13 91
l0 90 198 0 197 0 1 85 1 85 -199 0 -198 0 0 89 0 89 198 1 c108 0 205 0 215
0 15 1 17 12 17 86 l0 85 -335 0 c-184 0 -335 -1 -336 -2z"/>
<path d="M4300 3992 c-14 -5 -13 -39 3 -44 6 -3 51 -4 99 -3 72 1 89 -2 92
-14 2 -9 4 -150 4 -315 0 -188 4 -302 11 -309 5 -5 17 -7 25 -4 14 5 16 48 18
324 l3 318 97 0 c83 -1 97 2 101 16 3 9 2 21 -2 26 -6 8 -427 13 -451 5z"/>
<path d="M5025 3984 c-127 -44 -195 -186 -182 -377 10 -137 53 -226 132 -272
43 -26 62 -33 95 -34 11 -1 11 -4 2 -13 -7 -7 -11 -37 -11 -72 1 -34 4 -49 6
-33 5 34 26 35 41 2 14 -30 28 -32 37 -5 3 11 14 20 23 20 11 0 13 3 6 8 -8 5
-8 15 -2 32 9 23 10 24 19 7 6 -10 8 -25 5 -33 -3 -8 -1 -14 4 -14 5 0 12 -9
15 -21 4 -11 9 -19 11 -16 3 2 -6 33 -19 68 l-24 64 -15 -36 c-9 -20 -19 -45
-22 -57 -4 -12 -12 -22 -17 -22 -16 0 -22 29 -10 44 7 8 11 27 9 42 -3 25 0
28 52 38 78 16 150 60 150 91 0 32 -8 31 -71 -5 -61 -37 -154 -50 -213 -30
-106 35 -159 144 -152 312 5 96 28 163 74 211 44 46 80 60 157 61 59 1 80 -4
128 -28 49 -25 60 -28 68 -15 17 27 9 38 -48 66 -68 33 -181 40 -248 17z m87
-691 c-10 -4 -10 -8 -2 -18 16 -20 3 -55 -21 -55 -14 0 -19 7 -19 25 0 30 18
54 40 54 11 0 11 -2 2 -6z"/>
<path d="M5490 3985 c-4 -5 -7 -161 -7 -345 l2 -335 175 0 c174 0 175 0 178
23 2 16 -2 22 -15 23 -10 0 -79 1 -153 2 l-135 2 0 130 c-1 72 1 135 2 140 2
7 48 10 121 10 96 -1 118 2 123 15 14 35 0 40 -125 40 l-121 0 1 123 c1 67 2
124 3 127 0 3 66 5 146 5 114 -1 146 2 150 13 12 33 -8 38 -173 37 -98 0 -167
-4 -172 -10z"/>
<path d="M5913 3982 c-27 -28 2 -38 101 -37 l96 1 1 -145 c0 -81 0 -223 0
-318 0 -150 2 -172 16 -177 35 -14 38 9 39 322 1 169 2 309 3 312 0 3 45 6 99
5 97 0 97 0 97 25 l0 25 -219 0 c-172 0 -222 -3 -233 -13z"/>
<path d="M4291 3276 c-15 -18 -5 -40 25 -56 30 -17 27 -42 -6 -51 -14 -4 -18
-7 -8 -8 54 -3 64 36 18 69 -37 26 -38 36 -2 48 23 9 24 11 6 11 -12 1 -27 -5
-33 -13z"/>
<path d="M4362 3283 c13 -3 18 -18 20 -66 l3 -62 5 68 c5 66 5 67 -20 66 -16
-1 -19 -3 -8 -6z"/>
<path d="M4418 3283 c7 -3 12 -23 12 -52 0 -26 5 -52 12 -59 16 -16 53 -15 65
1 14 17 22 67 14 86 -3 9 -8 -5 -11 -34 -4 -43 -8 -50 -29 -53 -31 -5 -41 12
-41 71 0 38 -3 47 -17 46 -11 0 -13 -3 -5 -6z"/>
<path d="M4540 3225 l0 -65 33 0 c42 0 67 26 67 68 0 31 -22 62 -43 62 -6 0
-1 -7 11 -16 42 -29 22 -104 -28 -104 -30 0 -30 1 -30 54 0 44 4 55 18 59 13
4 11 5 -5 6 -22 1 -23 -3 -23 -64z"/>
<path d="M4657 3283 c-4 -3 -7 -33 -7 -65 0 -54 2 -58 23 -57 16 1 18 2 5 6
-11 3 -18 14 -18 28 0 18 6 25 28 28 l27 4 -27 2 c-23 1 -28 6 -28 25 0 20 6
25 33 29 l32 4 -31 1 c-17 1 -34 -1 -37 -5z"/>
<path d="M4727 3275 c-4 -8 -1 -15 5 -15 7 0 7 -4 1 -12 -12 -16 -14 -56 -4
-63 5 -2 7 9 5 25 -5 42 11 45 35 6 42 -68 51 -66 49 10 l-1 69 -6 -59 -6 -60
-36 58 c-26 40 -38 52 -42 41z"/>
<path d="M4842 3283 c13 -3 18 -18 21 -66 l3 -62 2 62 c2 55 4 62 25 66 12 2
2 4 -23 4 -25 1 -37 -1 -28 -4z"/>
<path d="M4980 3225 c0 -62 1 -65 24 -65 33 0 53 26 39 50 -7 10 -9 28 -6 40
6 24 -10 40 -39 40 -15 0 -18 -10 -18 -65z m45 30 c0 -11 -8 -21 -17 -23 -14
-3 -18 3 -18 23 0 20 4 26 18 23 9 -2 17 -12 17 -23z m10 -60 c0 -13 -8 -21
-22 -23 -19 -3 -23 1 -23 23 0 22 4 26 23 23 14 -2 22 -10 22 -23z"/>
<path d="M5242 3223 l2 -68 3 59 4 59 35 -57 c20 -31 40 -53 46 -50 5 3 7 12
4 20 -6 15 21 71 44 92 13 11 12 11 -7 2 -13 -6 -23 -18 -23 -26 0 -8 -4 -13
-9 -9 -6 3 -8 15 -6 27 3 11 1 18 -2 14 -4 -4 -8 -25 -9 -47 -1 -22 -4 -42 -7
-45 -2 -3 -16 15 -31 40 -39 68 -46 66 -44 -11z"/>
<path d="M5400 3286 c0 -2 7 -6 15 -10 8 -3 15 -1 15 4 0 6 -7 10 -15 10 -8 0
-15 -2 -15 -4z"/>
<path d="M5530 3260 c0 -28 -2 -30 -39 -30 -22 0 -41 5 -44 13 -2 6 -4 -1 -4
-18 0 -16 2 -24 4 -17 3 7 21 12 43 12 36 0 39 -2 43 -32 2 -18 5 -3 5 35 1
37 0 67 -3 67 -3 0 -5 -13 -5 -30z"/>
<path d="M5351 3200 c-1 -9 4 -21 11 -28 14 -14 54 -16 62 -4 3 5 -8 6 -24 4
-24 -3 -32 0 -39 19 -6 14 -10 18 -10 9z"/>
<path d="M4708 3163 c7 -3 16 -2 19 1 4 3 -2 6 -13 5 -11 0 -14 -3 -6 -6z"/>
<path d="M862 3128 c-18 -18 -15 -56 6 -66 9 -6 27 -6 40 -1 38 14 24 79 -18
79 -9 0 -21 -5 -28 -12z m55 -40 c-3 -7 -5 -2 -5 12 0 14 2 19 5 13 2 -7 2
-19 0 -25z m-27 12 c-19 -13 -30 -13 -30 0 0 6 10 10 23 10 18 0 19 -2 7 -10z
m5 -29 c-3 -6 -11 -8 -17 -5 -6 4 -5 9 3 15 16 10 23 4 14 -10z"/>
</g>
</svg>
